# xmcd
# 
# Track frame offsets:
#     150
#     20097
#     41998
#     61854
# 
# Disc length: 1115
# 
# Revision: 2
# Processed by: cddbd v1.5.2PL0 Copyright (c) Steve Scherf et al.
# Submitted via: fre:ac v1.0.27
# 
DISCID=32045904
DTITLE=四色定理 - COLOR/StartLine
DYEAR=2017
DGENRE=JPop
TTITLE0=COLOR
TTITLE1=StartLine
TTITLE2=COLOR(inst)
TTITLE3=StartLine(inst)
EXTD=YEAR: 2017
EXTT0=
EXTT1=
EXTT2=
EXTT3=
PLAYORDER=
